<?xml version="1.0" encoding="utf-8"?>
<!-- Generator: Adobe Illustrator 22.1.0, SVG Export Plug-In . SVG Version: 6.00 Build 0)  -->
<svg version="1.1" id="圖層_1" xmlns="http://www.w3.org/2000/svg" xmlns:xlink="http://www.w3.org/1999/xlink" x="0px" y="0px"
	 viewBox="0 0 20 20" style="enable-background:new 0 0 20 20;" xml:space="preserve">
<style type="text/css">
	.st0{fill-rule:evenodd;clip-rule:evenodd;fill:#FFFFFF;}
</style>
<g>
	<g>
		<path class="st0" d="M18.1,7.4c-0.1,0-0.3,0-0.4,0h-4.9c-0.6,0-0.8,0-1.1-0.3c-0.4-0.3-0.3-1-0.3-1.7c0-1.6,0-3.1,0-4.7
			c0,0,0,0,0,0c0,0,0,0-0.1,0c-2.2,0-4.5,0-6.7,0C4,0.6,2.8,0.5,2.4,0.8C2.2,0.9,2,1.1,1.9,1.4c-0.1,0.3,0,0.7,0,1v15.4
			c0,0.6,0,1.1,0.3,1.4c0.1,0.1,0.3,0.2,0.4,0.2c0.3,0.1,0.7,0,1,0h12.7c0.7,0,1.2,0,1.5-0.4c0.1-0.1,0.2-0.3,0.2-0.5
			c0-0.9,0-1.8,0-2.6C18.1,13.2,18.1,10.3,18.1,7.4z M14,15.2c0,0.1-0.1,0.2-0.3,0.3c-0.5,0-1,0-1.5,0H6.8c-0.2,0-0.5,0-0.6,0
			c-0.1,0-0.1-0.1-0.2-0.2c0-0.1-0.1-0.8,0-0.9c0.1-0.1,0.2-0.2,0.3-0.2h7c0.2,0,0.5,0,0.6,0.1c0,0,0.1,0.1,0.1,0.2
			C14.1,14.4,14.1,15.1,14,15.2z M6,11.7c0-0.2,0.2-0.2,0.3-0.2h7c0.2,0,0.5,0,0.6,0.1c0,0.1,0.1,0.1,0.1,0.2c0,0.1,0,0.8,0,0.9
			c-0.1,0.5-1.4,0.2-2,0.3H6.8c-0.2,0-0.4,0-0.6,0c-0.1,0-0.2-0.1-0.2-0.2C6,12.3,6,12,6,11.7z M14,9.8c0,0.1-0.1,0.2-0.3,0.3H8.1
			c-0.4,0-0.9,0-1.3,0c-0.2,0-0.4,0.1-0.6,0C6.1,10,6,9.9,6,9.8c0-0.3,0-0.6,0-0.9C6,8.8,6.1,8.8,6.3,8.7c1.8,0,3.6,0,5.5,0h1.6
			c0.2,0,0.4-0.1,0.6,0C13.9,8.8,14,8.9,14,9C14.1,9.1,14.1,9.6,14,9.8z M13.1,6h4.5c0,0,0,0,0,0c-0.3-0.4-0.6-0.7-0.9-1
			c-0.7-0.7-1.3-1.3-2-2c-0.2-0.2-0.5-0.5-0.7-0.7c-0.1-0.2-0.3-0.3-0.5-0.5c-0.2-0.2-0.3-0.3-0.5-0.5c-0.1-0.1-0.2-0.3-0.4-0.3V6
			C12.8,6.1,13,6,13.1,6z"/>
	</g>
</g>
</svg>
