<?xml version="1.0" encoding="utf-8"?>
<!-- Generator: Adobe Illustrator 22.1.0, SVG Export Plug-In . SVG Version: 6.00 Build 0)  -->
<svg version="1.1" id="圖層_1" xmlns="http://www.w3.org/2000/svg" xmlns:xlink="http://www.w3.org/1999/xlink" x="0px" y="0px"
	 viewBox="0 0 230.7 454.4" style="enable-background:new 0 0 230.7 454.4;" xml:space="preserve">
<style type="text/css">
	.st0{fill:#FFFFFF;}
</style>
<g>
	<path class="st0" d="M67.5,182.7c0,22.3-4.3,34.8-37.7,38.2c-0.7-11.4-1.8-19.3-5.2-24.8s-8-8.9-18.9-11.1v-3.2
		c0,0,21.4,1.4,26.4,1.4c3.2,0,4.3-1.4,4.3-3.9v-41.1c-4.8,2.5-10,5.2-15.2,8c-1.1,3-4.1,5.7-7,6.4l-8.9-38
		c6.4-0.7,17.5-2.3,31.1-4.5V66.6H10l-1.8-6.4h28.2V5.7l39.5,3.6c-0.5,3.4-2.7,5.7-8.4,6.6v42l11.4-18.2c0,0,8.9,8.6,16.6,16.8
		l-1.1-3.9h84.6l16.6-23.6c0,0,18.9,15.9,29.8,26.4c-0.7,2.5-3.2,3.6-6.6,3.6H97.8c1.1,1.4,2.3,2.7,3.4,3.9c-0.7,2.5-3,3.6-6.1,3.6
		H67.5V105c9.5-1.6,19.3-3.4,29.1-5.2l0.2,2c-7.3,5.2-17,11.4-29.3,18.6V182.7z M217.5,187.5c6.1,3.4,7.3,6.4,7.3,11.8
		c0,10.7-9.5,16.8-30.5,16.8h-10c-18.4,0-20.9-5.9-20.9-23.2V92.7H135v33c0,31.1-5.9,72.3-66.8,95.5l-1.6-2
		c34.1-27,38.6-61.6,38.6-93.4V74.5l34.3,11.8h21.1l13.9-15.7L200,91.6c-1.4,1.6-3.6,3-8.2,3.9v89.3c0,2.7,0.5,3.6,2.7,3.6h3.2h3.4
		c1.1,0,2.3-0.5,3.6-2.5c2-4.1,5.9-18,9.3-30.7h2.5L217.5,187.5z M123.2,7c69.1,7,38.6,60,11.4,37.7c-0.2-13.2-6.1-27.3-13-36.6
		L123.2,7z"/>
	<path class="st0" d="M75.2,321.3c0,41.8-4.8,96.4-66.4,128.4l-1.8-1.6c25.2-28.6,33.4-63,35.7-97.1c-4.3,9.3-9.8,20.2-16.4,32
		c0,3.2-1.6,6.8-4.5,8.6L4.3,357c6.6-3.2,22.5-12,39.1-22c0.2-4.5,0.2-8.9,0.2-13.4v-70.2L80,266.5h46.8c-2.3-12.3-9.8-25-17-32.7
		l1.4-1.1c49.3-2.5,52.3,23.9,39.3,33.9h30.5l15.7-20.7c0,0,17.7,13.9,28.4,23.4c-0.7,2.5-3.2,3.6-6.6,3.6H75.2V321.3z M11.4,272.5
		c53,25,25.7,68,5.5,46.6c1.8-15.2-2.3-33-8-45.5L11.4,272.5z M226.6,416.3c-13.6,4.3-22,15.5-25.2,31.6c-23.9-5-44.3-11.6-60.7-23
		c-25.5,12.7-56.4,20.5-92.5,23.4l-1.1-2.7c30.5-7.7,57.1-19.1,77.7-34.3c-10.5-11.4-18.6-25.9-24.5-45H84.3l-2-6.4h81.1l13.4-11.8
		h-1.4c-20,0-22-5.5-22-22.7v-26.8h-27.3V309c0,15.2-5.9,40-50.7,52.1l-1.1-2c19.1-14.8,20.9-34.5,20.9-50v-28.9l35.5,12h20.2
		l14.1-15l25,20c-1.4,1.4-4.1,2.7-8,3.2v18.4c0,2.3,0.5,3.2,3.4,3.2h6.6c2,0,4.3,0,5.9-0.2c1.4,0,4.5-0.2,5.9-0.2
		c1.4-0.2,4.1-0.7,5.9-1.1h2l1.1,0.5c6.6,3.2,8.4,5.7,8.4,10.9c0,11.1-9.5,16.4-33.6,16.4h-0.9l22.5,20.9c-1.6,2.5-3.9,3.2-9.5,3.6
		c-8.2,13.2-18.6,24.8-30.9,34.5c17.7,3.9,37.3,5.7,57.5,6.4L226.6,416.3z M104.6,366.3c8.4,14.5,20.9,24.8,36.1,31.6
		c9.5-9.3,17.3-20,23-31.6H104.6z"/>
</g>
</svg>
