<?xml version="1.0" encoding="utf-8"?>
<!-- Generator: Adobe Illustrator 22.1.0, SVG Export Plug-In . SVG Version: 6.00 Build 0)  -->
<svg version="1.1" id="圖層_1" xmlns="http://www.w3.org/2000/svg" xmlns:xlink="http://www.w3.org/1999/xlink" x="0px" y="0px"
	 viewBox="0 0 475.4 120.3" style="enable-background:new 0 0 475.4 120.3;" xml:space="preserve">
<style type="text/css">
	.st0{fill:#FFFFFF;}
</style>
<g>
	<path class="st0" d="M49.8,25.2c20.9,3.3,13.4,16.9,5.1,14.2c-0.8,0.7-2,1.3-3.9,1.5c-0.3,13.9-1.5,19.3-5.6,21.9
		c-2.8,1.8-6.1,2.7-11,2.7c0.1-3.3-0.1-6.2-1.4-7.8c-0.7-0.9-1.8-1.8-3-2.3c-4.4,8.4-11.3,15.1-21.1,20L8.3,74
		c9.6-9.3,12.8-21.6,13.5-34.9h-7.7l-1.1-3.3h25l6.2-5.8l7.6,6.1c0-3.7-1.4-7.8-3-10.3L49.8,25.2z M115.1,40
		c-1.4,1.1-3.9,0.9-6.9-0.4c-2.2,0.4-4.8,0.6-7.7,0.9c4.3,9.1,12.7,14.2,21.1,17.5v1.3c-5.3,1.5-9.1,6.2-11,13.4
		c-5.4-5.6-8.6-12-10.6-20.3c-3.2,3.2-8.5,8.2-14.5,13.4l16,1.3c-0.2,1.4-0.9,2.6-3.7,2.9v42.1c0,1.2-7.6,3.9-14.1,3.9h-3V95.7H44.6
		c-4,8.8-13,16.6-32.2,20.9l-0.6-0.9c16.1-9,18.7-21.8,18.7-33.6V65.5l20.7,1.9c-0.2,1.5-1.2,2.7-3.7,3V77h33.3V69l-5.5-11.8
		c3.2-1.8,3.6-2.7,3.6-4.8V35.9l10.2,0.9c5.7-2.7,11.4-6.1,14.8-8.5L115.1,40z M12,21.1h47.5l-0.8-0.5C58,15.1,54.6,9.4,51.1,6.2
		l0.7-0.6c24.7-2.6,25.3,11,18.1,15.5h19.8l9.6-11.3c0,0,10.7,7.5,17.4,12.7c-0.4,1.3-1.8,1.9-3.5,1.9H12.9L12,21.1z M35.5,39.1
		c-0.9,5-2.3,9.7-4.3,14c1.4,0.1,2.8,0.1,3.7,0.1c1.3,0,2-0.2,2.5-0.7c0.9-0.9,1.5-4.8,1.8-13.4H35.5z M80.6,92.4V80.3H47.4v2
		c-0.1,3.4-0.5,6.8-1.6,10.2H80.6z M85.2,29.9C85,31,83.6,32.3,81,32.2c-2.5,2.6-7,6.5-11.6,10l4.9,0.5c-0.2,1.3-0.9,2.2-3.4,2.6V70
		c0,0.9-6.3,3-11.4,3h-2.6V41.2l8.5,0.7c1.5-5.7,3.2-13,3.7-16.9L85.2,29.9z M91.2,53c2.7-0.8,5.5-1.8,8.3-2.6
		c-0.6-3-1.1-6.2-1.4-9.7c-2.2,0.2-4.6,0.4-6.9,0.5V53z"/>
	<path class="st0" d="M231,40.4c-1.1,1.2-2.6,2-5.4,2.5c-1.4,39.6-4,59.9-11.4,66.5c-4.8,4.4-10.2,6.3-20.5,6.3
		c0.1-5.4-0.8-9.6-3.5-12.1c-2.7-2.7-8.3-5.1-15.4-6.5v-1.2c7.5,0.5,17.9,1.1,21.5,1.1c2.1,0,3.4-0.4,4.6-1.5
		c4.3-3.5,6.3-24,7.5-55.7h-25.1c-2.2,31.8-11.3,58.8-56.2,76.9l-1.1-1.5c30.7-21.8,37.6-46.7,39.1-75.4h-33.4l-1.1-3.3h34.7
		c0.4-9.7,0.2-19.7,0.2-30.2l22.9,2.1c-0.2,1.9-1.4,2.9-4.3,3.3c-0.2,8.5-0.2,16.8-0.7,24.9H207l9.2-9.1L231,40.4z"/>
	<path class="st0" d="M273.1,96.8c0,11.4-2.2,17.9-19.4,19.6c-0.3-5.8-0.9-9.9-2.7-12.7s-4.1-4.6-9.7-5.7v-1.6c0,0,11,0.7,13.5,0.7
		c1.6,0,2.2-0.7,2.2-2V73.9c-2.5,1.3-5.1,2.7-7.8,4.1c-0.6,1.5-2.1,2.9-3.6,3.3l-4.6-19.5c3.3-0.3,9-1.2,16-2.3V37.1h-13.5l-0.9-3.3
		h14.5v-28l20.3,1.9c-0.2,1.8-1.4,2.9-4.3,3.4v21.6l5.8-9.3c0,0,4.6,4.4,8.5,8.6l-0.6-2h43.4l8.5-12.1c0,0,9.7,8.2,15.3,13.5
		c-0.4,1.3-1.6,1.9-3.4,1.9h-62.1c0.6,0.7,1.2,1.4,1.8,2c-0.4,1.3-1.5,1.9-3.2,1.9h-14.1v19.7c4.9-0.8,9.9-1.8,14.9-2.7l0.1,1.1
		c-3.7,2.7-8.8,5.8-15.1,9.6V96.8z M350.1,99.2c3.2,1.8,3.7,3.3,3.7,6.1c0,5.5-4.9,8.6-15.6,8.6h-5.1c-9.5,0-10.7-3-10.7-11.9V50.5
		h-14.6v16.9c0,16-3,37.1-34.3,49l-0.8-1.1c17.5-13.9,19.8-31.6,19.8-48V41.2l17.6,6.1h10.9l7.1-8.1l13.1,10.7
		c-0.7,0.8-1.9,1.5-4.2,2v45.9c0,1.4,0.2,1.9,1.4,1.9h1.6h1.8c0.6,0,1.2-0.2,1.9-1.3c1.1-2.1,3-9.2,4.8-15.8h1.3L350.1,99.2z
		 M301.7,6.5c35.5,3.6,19.8,30.8,5.8,19.4c-0.1-6.8-3.2-14-6.7-18.8L301.7,6.5z"/>
	<path class="st0" d="M393.8,51.2c0,21.5-2.5,49.5-34.1,66l-0.9-0.8c13-14.7,17.2-32.3,18.3-49.8c-2.2,4.8-5,10.4-8.4,16.5
		c0,1.6-0.8,3.5-2.3,4.4l-9-17.9c3.4-1.6,11.6-6.2,20.1-11.3c0.1-2.3,0.1-4.6,0.1-6.9V15.3l18.7,7.8h24c-1.2-6.3-5-12.8-8.8-16.8
		l0.7-0.6c25.3-1.3,26.9,12.3,20.2,17.4h15.6l8.1-10.6c0,0,9.1,7.1,14.6,12c-0.4,1.3-1.6,1.9-3.4,1.9h-73.5V51.2z M361,26.1
		c27.2,12.8,13.2,34.9,2.8,23.9c0.9-7.8-1.2-16.9-4.1-23.3L361,26.1z M471.5,100c-7,2.2-11.3,7.9-13,16.2
		c-12.3-2.6-22.8-6-31.2-11.8c-13.1,6.5-29,10.5-47.5,12l-0.6-1.4c15.6-4,29.3-9.8,39.9-17.6c-5.4-5.8-9.6-13.3-12.6-23.1h-8.2
		l-1.1-3.3h41.7L446,65h-0.7c-10.3,0-11.3-2.8-11.3-11.7V39.5h-14v5.4c0,7.8-3,20.5-26,26.7l-0.6-1.1C403.1,63,404,52.9,404,44.9
		V30.1l18.2,6.2h10.4l7.2-7.7l12.8,10.3c-0.7,0.7-2.1,1.4-4.1,1.6v9.5c0,1.2,0.2,1.6,1.8,1.6h3.4c1.1,0,2.2,0,3-0.1
		c0.7,0,2.3-0.1,3-0.1c0.7-0.1,2.1-0.4,3-0.6h1.1l0.6,0.2c3.4,1.6,4.3,2.9,4.3,5.6c0,5.7-4.9,8.4-17.3,8.4h-0.5l11.6,10.7
		c-0.8,1.3-2,1.6-4.9,1.9c-4.2,6.8-9.6,12.7-15.9,17.7c9.1,2,19.1,2.9,29.5,3.3L471.5,100z M408.8,74.3c4.3,7.5,10.7,12.7,18.6,16.2
		c4.9-4.8,8.9-10.3,11.8-16.2H408.8z"/>
</g>
</svg>
