<?xml version="1.0" encoding="utf-8"?>
<!-- Generator: Adobe Illustrator 22.1.0, SVG Export Plug-In . SVG Version: 6.00 Build 0)  -->
<svg version="1.1" id="圖層_1" xmlns="http://www.w3.org/2000/svg" xmlns:xlink="http://www.w3.org/1999/xlink" x="0px" y="0px"
	 viewBox="0 0 469 34.8" style="enable-background:new 0 0 469 34.8;" xml:space="preserve">
<style type="text/css">
	.st0{fill:#FFF100;}
	.st1{fill:#FFFFFF;}
</style>
<g>
	<path class="st0" d="M12.2,7.6C12,7.9,11.6,8,11,8c-1,1.7-2.7,4.6-4.1,6.4c3.2,1.9,4.4,4.6,4.4,6.8c0,2.7-1.1,4.3-4.3,4.4
		c0-0.9-0.1-2-0.4-2.4c-0.2-0.3-0.7-0.6-1.3-0.7v-0.4h1.8c0.3,0,0.4,0,0.6-0.2c0.4-0.2,0.6-0.7,0.6-1.6c0-1.9-0.6-4-2.2-5.9
		c0.5-1.8,1.2-5.1,1.6-7.3H5v22.2c0,0.2-0.9,1-2.5,1H2V5.1l3.4,1.3h2.1l1.6-1.6L12.2,7.6z M24,7.5c0,0,2,1.6,3.1,2.7
		c-0.1,0.3-0.4,0.4-0.8,0.4h-8.5c-0.1,1.4-0.1,2.8-0.3,4.1h4l1.7-1.7l2.9,2.5C26,15.9,25.6,16,25,16.1C24.7,24,24,27.7,22.5,29
		c-0.9,0.8-2.1,1.2-3.8,1.2c0-1-0.1-1.7-0.5-2.2c-0.5-0.5-1.5-0.9-2.6-1.2v-0.4c1.1,0.1,2.9,0.2,3.5,0.2c0.5,0,0.7-0.1,1-0.3
		c0.9-0.7,1.4-4.5,1.7-10.9h-4.3c-0.8,6.2-3,11.5-9.6,14.7l-0.2-0.2c5.7-5,6.7-11.8,6.7-19.4h-4.1L10,9.9h7.7
		c-0.4-0.1-0.8-0.3-1.2-0.6c0.1-1.6-0.6-3.4-1.6-4.6l0.2-0.1c6,1.2,5.3,5,3.2,5.4h3.9L24,7.5z"/>
	<path class="st0" d="M36.1,14.9c0,5.1-0.6,11.5-7.4,15.6l-0.3-0.2c3.1-3.5,4.1-7.7,4.4-11.9c-0.6,1.1-1.4,2.5-2.4,4
		c0,0.4-0.2,0.8-0.5,1l-1.8-3.5c0.8-0.4,2.7-1.6,4.8-3c0-0.6,0-1.2,0-1.9V6.7l3.7,1.6h6.9l-0.2-0.1c-0.3-1.4-1.3-2.8-2.2-3.7
		l0.2-0.2c5.4,0,5.6,3,4.1,4h4.5l1.7-2.2c0,0,1.9,1.5,3.1,2.6c-0.1,0.3-0.4,0.4-0.8,0.4H36.1V14.9z M29,9.3c5.9,3.1,3.1,7.8,0.9,5.6
		c0.1-1.8-0.5-4-1.3-5.4L29,9.3z M54.9,27.1c-1.4,0.4-2.2,1.5-2.5,3.1c-3.2-0.6-5.8-1.5-7.9-2.9c-3,1.6-6.7,2.6-11.1,3l-0.1-0.4
		c3.8-0.9,7-2.2,9.6-4c-1.4-1.4-2.5-3.2-3.3-5.5h-2l-0.2-0.8h10.4l1.7-1.5h-0.7c-2.2,0-2.4-0.6-2.4-2.4v-3.6h-4v1.2
		c0,1.9-0.7,4.9-5.9,6.4l-0.2-0.3c2.7-1.8,3-4.2,3-6.1v-3.2l3.6,1.3H46l1.5-1.5l2.7,2.2c-0.2,0.2-0.5,0.3-1,0.4v2.7
		c0,0.3,0.1,0.4,0.5,0.4h1c0.4,0,0.7,0,0.9,0c0.1,0,0.5,0,0.6,0c0.2,0,0.4-0.1,0.6-0.1h0.2l0.1,0.1c0.7,0.3,0.9,0.6,0.9,1.1
		c0,1.2-1,1.7-3.9,1.7h-0.5l2.7,2.5C52.2,20.9,52,21,51.3,21c-1.1,1.8-2.5,3.3-4.1,4.6c2.3,0.7,4.9,1.1,7.7,1.2L54.9,27.1z
		 M40.1,20.4c1,1.9,2.5,3.2,4.4,4.1c1.3-1.2,2.4-2.6,3.2-4.1H40.1z"/>
	<path class="st0" d="M77.5,11.5c-1,4.5-2.8,8.5-6,11.6c3.1,2,6.8,3.2,10.7,4.1l-0.1,0.3c-1.6,0.2-2.8,1.2-3.4,2.8
		c-3.7-1.2-6.9-2.9-9.5-5.3c-3.2,2.4-7.4,4.2-12.9,5.3L56.2,30c4.9-1.6,8.7-3.9,11.4-6.6c-2.5-2.9-4.4-6.8-5.4-11.9h-5.6l-0.2-0.8
		h20l2-2.6c0,0,2.2,1.8,3.5,3c-0.1,0.3-0.4,0.4-0.8,0.4H77.5z M62.7,11.5c1.2,4.3,3.5,7.6,6.6,10c2.3-2.9,3.6-6.3,4.2-10H62.7z
		 M66.1,4.5c8.6,1,6.1,7.4,2.8,5.2c-0.4-1.8-1.7-3.8-3-5.1L66.1,4.5z"/>
	<path class="st0" d="M106.6,26.1c0,0,2,1.5,3.2,2.6c-0.1,0.3-0.4,0.4-0.8,0.4H84.3l-0.2-0.8h20.7L106.6,26.1z M88.4,9
		c0.2,2-0.5,3.3-1.5,3.9c-0.8,0.6-2.2,0.4-2.5-0.6c-0.3-1,0.2-1.7,1.1-2.2c1-0.5,2.1-1.9,2-3.5h0.4c0.2,0.6,0.4,1.1,0.5,1.5h8
		C96.2,8.1,96,8,95.8,7.9c-0.1-1.2-1-2.6-1.9-3.3l0.2-0.2c5.6-0.3,5.4,3,3.6,3.7h7.3l1.6-1.7l2.9,2.7c-0.2,0.2-0.5,0.3-1.1,0.3
		c-0.8,0.9-2.2,2-3.3,2.7l-0.2-0.2c0.1-0.9,0.2-2.1,0.3-3.1H88.4z M102.3,10.1c0,0,1.8,1.3,3,2.3c-0.1,0.3-0.4,0.4-0.8,0.4H88.6
		l-0.2-0.8h12.3L102.3,10.1z M100.7,26.5V25h-8.3v1.2c0,0.2-1,0.7-2.6,0.7h-0.6V14.3l3.5,1.3h7.9l1.5-1.8l2.9,2.3
		c-0.2,0.2-0.4,0.4-1.1,0.5v9.1c0,0.2-1.1,0.7-2.8,0.7H100.7z M92.4,16.4V20h8.3v-3.5H92.4z M100.7,24.3v-3.5h-8.3v3.5H100.7z"/>
	<path class="st0" d="M127,24.5c2.5,1.5,6.7,2.2,10.2,2.4v0.3c-1.1,0.4-1.8,1.4-2.1,2.8c-3.8-1.1-7.2-2.8-9.2-5.5v5.1
		c0,0.1-1,0.7-2.8,0.7h-0.6V26c-2.7,1.9-6.6,3.2-10.8,4l-0.2-0.4c3.4-1.2,6.3-3,8.2-5.1h-7.4l-0.2-0.8h10.5V22h-3.1v0.2
		c0,0.3-1.4,0.9-2.7,0.9h-0.4v-8.6l3.3,1.3h9.1l1.5-1.5l2.3,1.7c0.2-0.5,0.4-1.2,0.5-1.9h-17.1c-0.1,1.6-0.9,2.7-2,3
		c-0.9,0.4-2.1,0.1-2.3-0.9c-0.2-0.9,0.4-1.6,1.2-1.9c1-0.3,2.2-1.2,2.3-2.4h0.4c0.2,0.5,0.2,1,0.3,1.4h17l1.5-1.5H112l-0.2-0.8
		h15.1l0.5-1.5h-7.7l-1,1.1l-3-1.8c0.2-0.2,0.5-0.4,0.9-0.6c0.5-1.2,1.2-3.2,1.4-4.1l4.2,0.6c-0.1,0.3-0.4,0.7-1.1,0.7l-0.2,0.4h7.3
		l1.4-1.5l3.1,2.4c-0.2,0.2-0.5,0.3-1,0.4l-1.2,3.8h2.1l1.7-2.2c0,0,1.8,1.5,2.9,2.5c-0.1,0.3-0.4,0.4-0.8,0.4h-1.6l2.7,2.6
		c-0.2,0.2-0.5,0.3-1.1,0.3c-0.9,0.5-2.3,1.2-3.3,1.6l0.2,0.2c-0.1,0.2-0.4,0.4-0.9,0.5v4.5c0,0.2-1.6,1-2.8,1H129V22h-3v1.7h6.2
		l1.7-2.2c0,0,1.9,1.5,3.1,2.5c-0.1,0.3-0.4,0.4-0.7,0.4H127z M119.5,16.8v1.9h3.1v-1.9H119.5z M122.6,21.2v-1.8h-3.1v1.8H122.6z
		 M127.5,8.9l0.6-2h-7.7c-0.2,0.7-0.5,1.4-0.8,2H127.5z M126,16.8v1.9h3v-1.9H126z M129,21.2v-1.8h-3v1.8H129z"/>
	<path class="st0" d="M144.5,16.4c-1.5,1.3-3.4,2.4-5.5,3.2l-0.2-0.4c2.2-1.5,4-3.6,5.1-5.7h-1.1v0.1c0,0.2-1.1,0.7-2.2,0.7h-0.4
		V8.3l2.7,1.1h1.6V7.7h-4.9l-0.2-0.8h5.1V4.3l3.7,0.4c-0.1,0.4-0.2,0.6-0.9,0.7v1.6h1.8l1.5-1.8c0,0,1.6,1.2,2.7,2.2
		c-0.1,0.3-0.4,0.4-0.7,0.4h-5.2v1.7h1.6l1.2-1.2l2.4,1.8c-0.1,0.2-0.4,0.4-0.8,0.4v2.9c0,0.2-1.3,0.8-2.1,0.8h-0.5v-0.6h-1.9v1
		l0.1-0.1c6.7,0.1,5.1,4.9,2.5,3.5c-0.4-1.1-1.6-2.4-2.6-3.2V19c0,0.3-1.2,0.8-2.3,0.8h-0.6V16.4z M161.8,26.5c0,0,1.9,1.5,3.1,2.5
		c-0.1,0.3-0.4,0.4-0.8,0.4h-24.6l-0.2-0.8h4.9v-5.8l4,0.3c-0.1,0.4-0.2,0.6-0.9,0.7v4.8h3.2v-7.3h-9.2l-0.2-0.8h17.3l1.6-2
		c0,0,1.8,1.4,2.9,2.3c-0.1,0.3-0.4,0.4-0.7,0.4h-8.4v3h3.7l1.6-2c0,0,1.9,1.4,3,2.4c-0.1,0.3-0.4,0.4-0.8,0.4h-7.5v3.5h6.5
		L161.8,26.5z M142.8,12.7h1.7v-2.5h-1.7V12.7z M147.4,10.2v2.5h1.9v-2.5H147.4z M162.9,9.4c-0.6,2-1.6,3.7-2.9,5.2
		c1.5,0.8,3.3,1.5,5.4,1.9l-0.1,0.3c-1.2,0.4-1.8,1.3-2,2.8c-2.2-0.8-3.9-2-5.1-3.4c-1.9,1.4-4.2,2.5-7.1,3.2l-0.1-0.3
		c2.6-1.2,4.6-2.7,6-4.5c-0.7-1.2-1.3-2.5-1.8-4c-0.8,0.9-1.6,1.7-2.6,2.3l-0.4-0.2c1.3-2,2.3-5.1,2.8-8.2l4,1.1
		c-0.1,0.3-0.4,0.6-1.1,0.6c-0.4,0.9-0.8,1.7-1.3,2.5h3.8l1.6-2.1c0,0,1.7,1.4,2.8,2.5c-0.1,0.3-0.4,0.4-0.7,0.4H162.9z M156.2,9.4
		c-0.2,0.2-0.4,0.5-0.6,0.7c0.6,1.2,1.4,2.2,2.4,3c0.7-1.2,1.2-2.4,1.5-3.8H156.2z"/>
	<path class="st1" d="M171.5,28.2v0.9c0,0.2-0.9,0.8-2.3,0.8h-0.5v-8.4c-0.6,0.6-1.1,1.1-1.7,1.5l-0.4-0.3c1.1-1.7,2.2-4.4,2.9-7
		c-0.3,0.2-0.8,0.3-1.4,0.3l-0.3,0V9.7l2.5,1h0.7l1-1.1l2.2,1.6c-0.1,0.2-0.4,0.3-0.8,0.4v3.4c0,0.2-1.1,0.6-1.8,0.6h-0.4v-0.9h-1.3
		v0.6c0,0,0,0.1-0.1,0.1l3.1,1.1c-0.1,0.3-0.5,0.6-1.1,0.5c-0.2,0.4-0.4,0.7-0.6,1l0.5,0.2h3.3c-0.2-0.1-0.5-0.2-0.8-0.4
		c-0.1-0.9-0.5-1.9-0.9-2.5l0.2-0.1c0.3,0,0.6,0.1,0.9,0.1V9.7l2.5,1h0.8l1.1-1.1l2.2,1.7c-0.1,0.2-0.4,0.3-0.8,0.4V15
		c0,0.2-1.2,0.6-1.9,0.6h-0.4v-0.8h-1.4v0.3c0,0.1-0.4,0.5-1.2,0.6c2,0.8,1.4,2.3,0.2,2.6h1.6l1.3-1.6c0,0,1.5,1.1,2.4,2
		c-0.1,0.3-0.4,0.4-0.7,0.4h-3.8v2.2h0.7l1.2-1.5c0,0,1.4,1.1,2.3,1.9c-0.1,0.3-0.3,0.4-0.7,0.4h-3.5v2.2h0.7l1.3-1.5
		c0,0,1.4,1.1,2.3,1.9c-0.1,0.3-0.3,0.4-0.7,0.4h-3.5v2.4h1.1l1.4-1.7c0,0,1.6,1.2,2.5,2.1c-0.1,0.3-0.4,0.4-0.7,0.4H171.5z
		 M166.7,7h3.4V4.3l3.6,0.3c-0.1,0.3-0.2,0.6-0.9,0.6v3.9c0,0.2-1.2,0.6-2.3,0.6h-0.5v-2h-3.2L166.7,7z M169.9,11.5V14h1.3v-2.5
		H169.9z M171.5,19.1v2.2h2.4v-2.2H171.5z M173.9,22h-2.4v2.2h2.4V22z M173.9,25h-2.4v2.4h2.4V25z M177.6,9c0,0.2-1.2,0.6-2.3,0.6
		h-0.5V4.3l3.6,0.3c0,0.3-0.2,0.5-0.8,0.6V7h1l1.2-1.7c0,0,1.4,1.1,2.2,2c-0.1,0.3-0.3,0.4-0.7,0.4h-3.7V9z M176.7,11.5V14h1.4v-2.5
		H176.7z M188.3,13.1c-0.1,0.3-0.4,0.6-1,0.6c0,0.5-0.1,1-0.1,1.5c0.5,5.6,1.9,9.5,5.4,11.7l0,0.3c-1.4,0.4-2.2,1.4-2.5,3.2
		c-2.1-2.2-2.9-6.5-3.3-11.5c-0.6,4.7-2.1,9-6.9,11.5l-0.3-0.4c4.5-3.9,4.7-10.7,4.8-17.8L188.3,13.1z M193.1,11.2
		c-0.2,0.2-0.5,0.3-1.1,0.3c-0.7,1.5-1.9,3.7-2.9,5.1l-0.3-0.2c0.2-1.5,0.4-3.8,0.5-5.4h-4.8c-1,2.2-2.2,4.2-3.6,5.8l-0.4-0.2
		c1.2-3.2,2.2-7.9,2.7-12.1l4.1,1.1c-0.1,0.3-0.4,0.6-1.1,0.6c-0.4,1.4-0.9,2.8-1.5,4.1h4.2l1.5-1.5L193.1,11.2z"/>
	<path class="st1" d="M203.8,18.7c-0.8,2-2.3,4.1-4.2,5.8c0.1,0,0.2,0.1,0.3,0.2c2.2,1.8,5.5,2.2,11.5,2.2c3.2,0,5.9,0,9.1-0.2v0.3
		c-1.3,0.3-2.1,1.4-2.2,2.7h-8c-5.9,0-8.4-1.1-10.8-4c-0.4-0.5-0.7-0.4-0.9,0.1c-0.5,0.8-1.3,2.3-1.9,3.7c0.1,0.2-0.1,0.4-0.2,0.6
		l-2.2-3.2c1.2-0.6,3-1.9,4-2.3c1-1.8,1.8-4.1,2.2-6h-1.7l-1,0.9l-2.6-1.8c0.3-0.2,0.7-0.4,1.1-0.5c0.9-1.3,2.1-3.2,2.9-4.5H195
		l-0.2-0.8h4.6l1.4-1.4l2.8,2.5c-0.2,0.3-0.8,0.4-1.5,0.4c-0.7,1.2-1.9,3-2.8,4.4h1.2L202,16l2.5,2V6.9l2.2,0.5c1-1.1,2-2.2,2.5-2.9
		l3.5,2.1c-0.1,0.2-0.4,0.4-1.1,0.2c-0.2,0.1-0.5,0.2-0.8,0.4l2.8,1.1h2.1l1.3-1.5l3,2.2c-0.2,0.2-0.6,0.5-1.2,0.6v10.2
		c0,2-0.4,3.1-3.4,3.4c-0.1-0.9-0.1-1.6-0.4-2s-0.7-0.7-1.5-0.9v5c0,0.2-0.9,0.9-2.4,0.9h-0.5V7.2c-1,0.4-2.2,0.8-3.3,1.2v10.3
		c0.9-0.4,1.8-0.7,2.8-1.2l0.1,0.3c-0.7,0.9-2.2,2.6-4,4.4c-0.3,0.6-0.7,1-1.1,1.2l-1.7-3.6c0.8-0.5,1-0.7,1-1.3
		C204.4,18.6,204.2,18.6,203.8,18.7z M195.8,4.8c7.9,0.4,5.5,6.4,2.4,4.4c-0.3-1.5-1.5-3.3-2.7-4.3L195.8,4.8z M213.6,9v10.8
		c0.3,0,1.7,0.1,2,0.1c0.4,0,0.5-0.1,0.5-0.5V9H213.6z"/>
	<path class="st1" d="M244.2,9.1c-0.2,0.3-0.5,0.4-1.3,0.4c-1.3,1.9-2.9,3.6-4.8,5.1c3.2,1.4,6.8,2.2,10.3,2.6l0,0.3
		c-1.4,0.3-2.3,1.4-2.7,3c-1.3-0.3-2.6-0.7-3.8-1.2l2.4,1.9c-0.2,0.2-0.6,0.5-1.2,0.6v7.5c-0.1,0.2-1.7,0.8-2.8,0.8h-0.6v-2h-8.8
		v1.2c0,0.3-1.5,1-2.8,1h-0.5V19.8c-1.8,0.5-3.7,1-5.7,1.3l-0.2-0.4c4.6-1.5,8.8-3.7,12.1-6.4c-1.2-1.2-2.2-2.6-3-4.1
		c-2.2,2.3-4.9,4.3-7.7,5.6l-0.2-0.3c3.2-2.6,6.5-7.3,8-11.3l4.5,1.1c-0.1,0.3-0.4,0.4-1.1,0.4c-0.5,0.7-1,1.5-1.6,2.3h6.1l2.2-1.9
		L244.2,9.1z M240.8,18.9c-1.8-0.7-3.4-1.7-4.9-2.8c-2.1,1.3-4.5,2.5-7.2,3.3l2.4,0.9h8.4L240.8,18.9z M239.8,27.2v-6h-8.8v6H239.8z
		 M232.2,8.8c-0.3,0.3-0.6,0.6-0.8,0.9c1,1.3,2.4,2.5,3.9,3.4c1.4-1.4,2.6-2.8,3.6-4.4H232.2z"/>
	<path class="st1" d="M257.1,12.6c-0.1,0.2-0.3,0.4-0.9,0.5v16.2c-0.1,0.2-1.4,1-2.7,1H253V15.8c-1.1,1.2-2.2,2.3-3.5,3.2l-0.3-0.2
		c2.3-3.5,4.6-9,5.8-14.4l4.6,1.4c-0.1,0.4-0.5,0.6-1.1,0.6c-0.8,2.1-1.8,4-2.8,5.7L257.1,12.6z M272.4,25.3c0,0,2.1,1.7,3.4,2.9
		c-0.1,0.3-0.4,0.4-0.8,0.4h-18.1l-0.2-0.8h9.6c1.1-4.5,2.1-10.5,2.5-14.8l4.6,1.1c-0.1,0.4-0.4,0.6-1.1,0.7
		c-1.1,3.6-3.2,8.9-5.6,13h3.6L272.4,25.3z M257.4,11.1h12.8l1.8-2.4c0,0,2,1.6,3.3,2.7c-0.1,0.3-0.4,0.4-0.7,0.4h-16.9L257.4,11.1z
		 M259.6,13.4c8.8,8.5,4,15.6,1.8,12c0-3-0.4-8.1-2.2-11.8L259.6,13.4z M262.9,4.4c8.2,1.9,5,8.1,1.9,5.6c-0.1-1.9-1.1-4-2.2-5.4
		L262.9,4.4z"/>
	<path class="st1" d="M281.8,14v15.1c0,0.4-1.2,1.2-2.5,1.2h-0.5V5.1l3.2,1.4h3.6L287,5l2.9,2.2c-0.2,0.2-0.5,0.4-1,0.5v6.7
		c0,0.2-1.4,0.9-2.4,0.9h-0.5V14H281.8z M281.8,7.3v2.5h4V7.3H281.8z M285.9,13.2v-2.6h-4v2.6H285.9z M294,22.4v5.9
		c0,0.1-0.8,0.6-2.2,0.6h-0.5v-6.6h-2.5c-0.3,2.4-1.4,5.1-5.4,6.8l-0.3-0.3c2.3-1.9,2.9-4.3,3.1-6.5h-3.2l-0.2-0.8h3.5
		c0-0.3,0-0.6,0-0.9v-3.1h-2.7l-0.2-0.8h10l1.4-1.9c0,0,1.7,1.3,2.6,2.2c-0.1,0.3-0.3,0.4-0.7,0.4H294v4h0.1l1.4-1.9
		c0,0,1.5,1.3,2.5,2.2c-0.1,0.3-0.4,0.4-0.7,0.4H294z M291.3,21.6v-4h-2.4v3.1c0,0.3,0,0.6,0,0.9H291.3z M302.9,7.2
		c-0.2,0.2-0.6,0.5-1.1,0.6v18.8c0,2.2-0.4,3.4-3.8,3.7c-0.1-1-0.2-1.8-0.5-2.2c-0.4-0.5-0.8-0.8-1.9-1v-0.4c0,0,2.1,0.1,2.6,0.1
		c0.4,0,0.5-0.2,0.5-0.5V14h-4.2v0.2c0,0.3-1.3,0.9-2.5,0.9h-0.4V5.3l3.1,1.2h3.8l1.4-1.7L302.9,7.2z M294.5,7.3v2.5h4.2V7.3H294.5z
		 M298.7,13.2v-2.6h-4.2v2.6H298.7z"/>
	<path class="st1" d="M316.9,22.7c-0.2,0.2-0.5,0.4-1,0.4c-0.2,3.6-0.8,5.7-2,6.5c-0.8,0.5-1.8,0.7-3.2,0.7c0-0.8-0.1-1.5-0.5-1.9
		c-0.4-0.4-1.3-0.8-2.4-1v-0.4c1.1,0.1,2.9,0.2,3.4,0.2c0.4,0,0.7,0,0.9-0.2c0.4-0.4,0.8-1.9,1-4.5h-3l-1.1,1.4l-2.6-1.8
		c0.3-0.2,0.7-0.4,1.1-0.6c0.3-1.4,0.6-3.6,0.7-4.8l3,1.2h1.6v-3.6h-3c-1.4,0.7-3,1.3-4.7,1.8l-0.2-0.3c2.3-1.1,4.2-2.6,5.8-4.3
		c-0.5,0.2-1.1,0.1-1.7-0.3c-0.2-1.1-1-2.4-1.9-3l0.2-0.2c3.5-0.2,4.6,1.2,4.5,2.2c0.8-1.1,1.4-2.2,1.9-3.3h-7l-0.2-0.8h7.2l1.8-1.7
		l2.9,2.5c-0.2,0.3-0.5,0.4-1.1,0.4c-1.3,2.4-3.3,4.5-6,6.2h2l1.2-1.3l2.3,2.2c-0.2,0.2-0.6,0.4-1,0.5v4.3c-0.1,0.1-1.3,0.6-2.4,0.6
		h-0.6v-1h-2.3c-0.1,0.9-0.3,2.1-0.5,3h2.8l1.5-1.4L316.9,22.7z M330.5,9.4c-0.2,0.2-0.4,0.4-1,0.2c-0.9,0.4-2,1-3.2,1.4
		c1.6,0.7,3.3,1.2,5,1.6l-0.1,0.3c-1.3,0.3-2.2,1.3-2.7,2.8c-0.8-0.4-1.5-0.7-2.2-1.1c-0.1,0-0.3,0.1-0.4,0.1v2.5
		c0,0.3,0.1,0.4,0.3,0.4h0.4h0.5c0.1,0,0.4,0,0.5,0c0.1,0,0.4-0.1,0.6-0.1h0.2l0.1,0c0.7,0.3,0.9,0.6,0.9,1c0,1.1-0.9,1.4-3.3,1.4
		H326l2.6,2.2c-0.2,0.3-0.5,0.3-1.1,0.4c-0.6,1-1.3,1.9-2.2,2.8c4.2,2.3,3.4,5.5,0.9,4.7c-0.7-0.9-1.9-2-3.1-3
		c-2.2,1.5-4.9,2.6-8,3.2l-0.2-0.4c2.5-1,4.7-2.5,6.4-4.2c-1.3-0.9-2.7-1.7-4-2.3l0.2-0.3c2,0.2,3.7,0.6,5,1c0.5-0.6,0.9-1.3,1.2-2
		H317l-0.2-0.8h7.1l1.5-1.4h-0.3c-2,0-2.2-0.6-2.2-2.2v-3.2h-2.2v0.9c0,1.7-0.6,4.3-4.8,5.6l-0.2-0.3c1.9-1.6,2.1-3.6,2.1-5.3v-2.9
		l3.4,1.2h1.4l0.9-1c-2.3-2-4.1-4.7-5.1-8.3l0.4-0.2c0.7,1.5,1.6,2.8,2.8,3.8c0.9-1.1,1.8-2.5,2.3-3.4l3.1,2
		c-0.2,0.3-0.4,0.4-1.1,0.2c-0.9,0.6-2.3,1.2-3.7,1.7c0.9,0.7,1.9,1.4,3,1.9c0.8-1.1,1.7-2.4,2.1-3.3L330.5,9.4z"/>
	<path class="st1" d="M355.3,11.7c0,0,2,1.5,3.2,2.6c-0.1,0.3-0.4,0.4-0.8,0.4h-9c-1.6,1.2-3.3,2.3-5.2,3.3h7l1.5-1.6l3.2,2.4
		c-0.2,0.2-0.6,0.5-1.1,0.6v10c0,0.2-1.6,0.8-2.7,0.8h-0.5v-2h-8.7v1.1c0,0.3-1.4,1.1-2.7,1.1h-0.5v-10c-2,0.9-4.1,1.7-6.4,2.3
		l-0.2-0.4c2.3-1,4.5-2.2,6.6-3.5v-2.1l2,0.8c1.3-0.9,2.6-1.9,3.8-2.8h-11.6l-0.2-0.8h9.2V9.6h-6.5l-0.2-0.8h6.7V4.3l4.1,0.4
		c-0.1,0.4-0.2,0.6-0.9,0.7v3.4h1.4l1.7-2.2c0,0,1.4,1.1,2.5,2c1.1-1.2,2-2.4,2.8-3.6l3.5,2.6c-0.2,0.2-0.6,0.4-1.2,0.2
		c-1.7,2-3.8,4.1-6.4,6.1h3.9L355.3,11.7z M342.1,18.8v3.8h8.7v-3.8H342.1z M350.8,27.4v-4h-8.7v4H350.8z M345.3,13.9h0.3
		c1.7-1.4,3.2-2.9,4.5-4.3h-4.8V13.9z"/>
	<path class="st1" d="M383.7,10.1c-0.2,0.2-0.6,0.5-1.2,0.6v18.4c-0.1,0.2-1.7,1-2.9,1H379v-2.1h-11.2V29c0,0.4-1.4,1.2-2.8,1.2
		h-0.6V7.9l3.6,1.5h2.5c0.3-1.5,0.6-3.5,0.7-5l4.9,0.8c-0.1,0.4-0.4,0.6-1,0.6c-0.9,1-2.1,2.4-3.4,3.5h7l1.7-1.9L383.7,10.1z
		 M367.8,10.1v5H379v-5H367.8z M367.8,16v5.2H379V16H367.8z M379,27.3V22h-11.2v5.3H379z"/>
	<path class="st1" d="M412.9,11.7c-0.2,0.3-0.7,0.6-1.4,0.7v16.8c-0.1,0.2-1.6,1-2.8,1h-0.5v-2.4h-14.8v1.4c0,0.4-1.4,1.2-2.7,1.2
		h-0.5V9.5l3.5,1.4h5.4V4.6l4.3,0.4c-0.1,0.4-0.3,0.7-1,0.8v5.1h5.5l1.6-1.9L412.9,11.7z M393.4,11.7v7h5.7v-7H393.4z M393.4,27h5.7
		v-7.5h-5.7V27z M402.4,11.7v7h5.8v-7H402.4z M408.2,27v-7.5h-5.8V27H408.2z"/>
	<path class="st1" d="M428,29c0,0.3-0.9,1.3-2.5,1.3h-0.5V23c-1.7,1-4,2.2-7.1,3.7c-0.2,0.4-0.4,0.6-0.8,0.7l-1.7-3.7
		c0.6-0.1,1.6-0.2,2.8-0.4V7.7h-2.3l-0.2-0.8H427l1.7-2.2c0,0,1.9,1.5,3.1,2.6c-0.1,0.3-0.4,0.4-0.7,0.4h-3V29z M421.2,7.7v4.4h3.7
		V7.7H421.2z M421.2,17.4h3.7v-4.5h-3.7V17.4z M421.2,22.8c1.2-0.2,2.4-0.4,3.7-0.6v-4h-3.7V22.8z M441.3,10.4
		c-0.2,0.3-0.5,0.4-1.1,0.5c-0.7,4-1.9,8.1-4.2,11.7c1.6,1.9,3.6,3.4,5.9,4.6l-0.1,0.3c-1.4,0.3-2.4,1.3-2.7,2.6
		c-2-1.4-3.6-3.1-4.8-5.3c-1.6,1.9-3.7,3.6-6.2,5.1l-0.3-0.3c2.2-2,4-4.4,5.3-7c-1.5-3.3-2.5-7.4-2.9-12.2h-1.7l-0.2-0.8h8.2
		l1.7-1.8L441.3,10.4z M430.8,10.3c0.6,4,1.7,7.2,3.4,9.8c1.3-3.2,2.1-6.5,2.6-9.8H430.8z"/>
	<path class="st1" d="M467.8,7.3c-0.2,0.2-0.6,0.5-1.2,0.7v18.3c0,2.2-0.5,3.4-4.1,3.8c-0.1-1-0.2-1.8-0.6-2.2
		c-0.4-0.5-1-0.8-2.4-1.1v-0.4c0,0,2.7,0.2,3.3,0.2c0.5,0,0.6-0.2,0.6-0.6v-5.5h-5.6v8.6c0,0.2-1,0.9-2.6,0.9h-0.6v-9.5h-5.3
		c-0.5,3.5-2,7.1-5.8,9.6l-0.3-0.2c3-4.2,3.2-9.5,3.2-14.8V5.2l3.7,1.3H463l1.5-1.8L467.8,7.3z M454.6,19.7v-5.9h-4.9v1.3
		c0,1.5,0,3-0.2,4.6H454.6z M449.6,7.3V13h4.9V7.3H449.6z M457.8,7.3V13h5.6V7.3H457.8z M463.3,19.7v-5.9h-5.6v5.9H463.3z"/>
</g>
</svg>
