<?xml version="1.0" encoding="utf-8"?>
<!-- Generator: Adobe Illustrator 22.1.0, SVG Export Plug-In . SVG Version: 6.00 Build 0)  -->
<svg version="1.1" id="圖層_1" xmlns="http://www.w3.org/2000/svg" xmlns:xlink="http://www.w3.org/1999/xlink" x="0px" y="0px"
	 viewBox="0 0 330.4 233.9" style="enable-background:new 0 0 330.4 233.9;" xml:space="preserve">
<style type="text/css">
	.st0{fill:#FFFFFF;}
	.st1{fill:none;stroke:#FFFFFF;stroke-width:4.9423;stroke-miterlimit:10;}
	.st2{fill:none;stroke:#FFFFFF;stroke-width:1.3814;stroke-miterlimit:10;}
</style>
<g>
	<g>
		<g>
			<g>
				<path class="st0" d="M147.2,183.3c-0.1,0-0.1,0-0.2,0c-0.2-0.1-0.3-0.2-0.4-0.4c-0.2-0.5-0.6-0.8-1.2-1.1
					c-0.2-0.1-0.4-0.2-0.5-0.3c-0.2,0.2-0.3,0.5-0.5,0.8c-0.1,0.2-0.3,0.3-0.5,0.3c0,0,0,0,0,0c-0.6,0-1-0.3-1.2-0.9
					c-0.1-0.4-0.2-0.8-0.2-1.2c0-0.3,0-0.7-0.1-0.8c-0.7-1.3-0.7-2.7-0.7-4.1c0-1.2,0-2.3-0.4-3.3c-1.4-3.7-3.8-5.5-6.9-7
					c-0.1-0.1-0.2-0.2-0.3-0.3c-0.1-0.4-0.5-0.6-1.1-0.8c-0.5-0.2-1.1-0.5-1.6-1c-0.3-0.4-0.6-0.8-0.8-1.2c-0.3-0.5-0.6-1-1-1.3
					c-0.1-0.1-0.1-0.2-0.2-0.3c-0.1-0.2,0-0.5,0.2-0.6c-0.4-0.4-0.8-0.8-0.9-1.4c-0.2-0.6-0.2-1.2,0.1-1.7c-0.4-0.4-0.8-0.9-1.1-1.5
					c-0.7-1.2-0.9-2.4-1-3.5c-0.1-1.2-0.2-2.3-1.1-3.5c-0.2-0.2-0.2-0.6,0.1-0.8c0.1-0.1,0.1-0.1,0.2-0.2c-0.5-0.4-1.4-0.7-2.6-0.8
					c-0.3,0-0.5-0.3-0.5-0.5c-0.1-0.7-0.2-2.1,0.5-2.9c-0.5-1.7,0.1-3.3,0.6-4.8c0.4-1.2,0.8-2.4,0.7-3.6c0-0.2,0-0.3,0.1-0.4
					c0.1-0.1,0.2-0.2,0.4-0.2c0,0,0,0,0,0c0-0.6,0-1.3,0.1-1.9c0.1-0.9,0.2-1.7,0-2.6c-0.4-1.7-0.2-3.5,0.5-4.8
					c0.3-0.5,0.4-0.9,0.6-1.4c0.3-0.9,0.6-1.8,1.4-2.6c0.7-0.7,1.2-0.8,1.7-0.7c0.1,0,0.1,0,0.2,0c-0.1-0.1-0.1-0.3-0.2-0.4
					c-0.2-0.3-0.4-0.6-0.3-1.1c0.1-0.4,0.4-0.8,1-1.4c0.6-0.6,1-1.3,1.4-2c0.3-0.6,0.7-1.2,1.1-1.8c0.6-0.8,0.8-1.2,1.1-1.8
					c0.1-0.3,0.3-0.6,0.5-0.9c0.3-0.5,0.6-0.9,0.9-1.2c0.4-0.4,0.7-0.8,0.9-1.4c0.1-0.2,0.2-0.6,0.3-0.9c0.5-1.8,1.4-4.6,3-5.2
					c0.3-1,1.1-2.6,1.9-4c1.1-1.8,2-2.9,2.7-3.3c0-0.1,0-0.2,0-0.3c-0.1-0.3,0.1-0.6,0.4-0.7c0.6-0.2,1.2-0.4,1.8-0.7
					c0.2-1.4,0.8-1.8,1.5-2.3c0.3-0.2,0.5-0.4,0.8-0.6c0.3-0.4,0.3-0.7,0.3-1c0-0.5,0-1,0.6-1.6c-0.1-0.9,0.3-1.4,0.7-1.9
					c0.1-0.1,0.2-0.3,0.3-0.4c2.2-3.3,3.2-4.4,6.8-6c0.4-0.2,4.1-1.8,6.4-2.1c0.1-0.3,0.2-0.6,0.3-1.1c0,0,0-0.1,0-0.1
					c0-0.1,0-0.2,0.1-0.3l0,0c0,0,0,0,0,0c0.7-1.3,1.5-2.1,2.4-2.6c2.4-1.3,3.4,0.1,4.1,1.1c0.5,0.7,0.9,1.3,1.7,1.5
					c0.2,0,0.4,0.2,0.4,0.4c0.4,1.1,3.1,1.8,4.5,1.8c1.4,0.1,2,0.2,2.4,0.6c0.3,0.4,0.3,0.9,0.3,1.3c0,0.4-0.1,0.9,0.1,1.5
					c0.2,0.1,0.4,0.1,0.6,0.1c0.5,0,1.1,0.1,1.5,0.6c0.1,0.1,0.2,0.3,0.2,0.4c-0.1,0.7-1,1.5-2.4,2.6c-0.5,0.4-1,0.7-1.1,0.9
					c-1,1.2-1.3,1.7-1.6,3.1c-0.3,1.3-0.3,4.5,0.5,5.9c0.2,0.4,0.5,0.6,0.8,0.7c0.2,0.1,0.4,0.3,0.4,0.5c0,0.2-0.1,0.5-0.3,0.6
					c-0.3,0.1-0.5,1.4-0.6,2c-0.2,1-0.3,1.9-0.8,2.4c-0.8,0.8-1.1,2-1.4,3.3c-0.1,0.4-0.2,0.9-0.3,1.3c-0.4,1.3-1,2.5-2.4,3.1
					c-0.2,0.8-0.6,1.5-1,2.2c-0.5,0.8-0.9,1.6-0.8,2.2c0.4,2.8-0.5,5.8-1.3,8.6c-0.4,1.4-0.8,2.8-1.1,4.2l-0.1,0.3
					c-0.8,4.7-1.7,9.5-3.5,13.5c-0.1,0.2-0.2,1-0.3,1.7c-0.3,2-0.5,3-1.1,3.4c0,0-0.1,0-0.1,0.1c-0.6,1.1-2.2,4.1-2.6,4.6l-0.1,0.1
					c-1,1.2-2.4,2.8-2.4,4c0,1.8-2.8,3.5-2.9,3.6c-1.6,1-3.3,3-4.5,5.5c-1.2,2.4-1.9,5-2,7c0,1.3,0,2.7,0.1,4c0,1.1,0.1,2.3,0.1,3.5
					c0,0.9-0.3,1.6-0.6,2.1c-0.4,0.7-0.6,1.2-0.1,2.1c0.1,0.2,0.1,0.4,0,0.6c0,0-0.1,0.1-0.1,0.1c0,0.1,0.1,0.2,0.1,0.3
					c0,0.5-0.3,0.9-0.8,1.4C147.5,183.3,147.4,183.3,147.2,183.3z"/>
			</g>
		</g>
		<g>
			<path class="st1" d="M152.4,56.6c-20.1,2.7-41.6,5-64.1,6.8v8.5c0,63.5,4.2,103.9,61.8,128.6l2.2,1l2.2-1
				c57.6-24.7,61.8-65.1,61.8-128.6v-8.5C194,61.6,172.5,59.3,152.4,56.6z"/>
		</g>
	</g>
	<path class="st0" d="M42.4,214.3c-0.5-0.2-1.1-0.2-1.5,0.1l-2.7-1.3c0.1-0.2,0.2-0.4,0.2-0.7c0.2-0.5,0.3-1,0.3-1.6l2.9,0.2
		c0.2,0.5,0.7,0.8,1.2,0.8c0.8,0.1,1.5-0.5,1.5-1.3s-0.5-1.5-1.3-1.5c-0.6,0-1,0.2-1.3,0.7l-2.9-0.2c0-0.9-0.1-1.7-0.3-2.5l2.8-0.9
		c0.4,0.4,0.9,0.5,1.5,0.3c0.8-0.3,1.2-1.1,0.9-1.8c-0.3-0.8-1.1-1.2-1.8-0.9c-0.5,0.2-0.9,0.6-1,1.1l-2.8,0.9
		c-0.4-1-0.9-1.9-1.6-2.7l2-2.3c0.5,0.1,1.1,0,1.4-0.5c0.5-0.6,0.5-1.5-0.1-2c-0.6-0.5-1.5-0.5-2,0.1c-0.4,0.4-0.5,1-0.3,1.5
		l-1.9,2.2c-0.9-0.8-2-1.5-3.1-1.9l0.9-2.8c0.5-0.1,0.9-0.5,1.1-1c0.2-0.8-0.2-1.6-1-1.8c-0.8-0.2-1.6,0.2-1.8,1
		c-0.2,0.5,0,1.1,0.4,1.4l-0.9,2.8c-1-0.2-1.9-0.3-2.9-0.2l-0.4-2.9c0.4-0.3,0.7-0.8,0.6-1.4c-0.1-0.8-0.8-1.4-1.6-1.3
		c-0.8,0.1-1.4,0.8-1.3,1.6c0.1,0.5,0.4,1,0.9,1.2l0.4,2.9c-1,0.2-1.9,0.5-2.8,1l-1.6-2.5c0.3-0.4,0.3-1,0-1.5
		c-0.4-0.7-1.3-0.9-2-0.5c-0.7,0.4-0.9,1.3-0.5,2c0.3,0.5,0.8,0.7,1.3,0.7l1.6,2.5c-0.8,0.6-1.5,1.3-2.1,2.1l-2.5-1.6
		c0-0.5-0.2-1-0.7-1.3c-0.7-0.4-1.6-0.2-2,0.4c-0.4,0.7-0.2,1.6,0.4,2c0.5,0.3,1,0.3,1.5,0l2.5,1.6c-0.3,0.6-0.6,1.2-0.8,1.9
		c-0.1,0.2-0.1,0.4-0.2,0.6l-2.9-0.5c-0.2-0.5-0.6-0.9-1.1-1c-0.8-0.1-1.5,0.4-1.7,1.2s0.4,1.5,1.2,1.7c0.5,0.1,1.1-0.1,1.4-0.5
		l2.9,0.5c-0.1,0.8-0.1,1.6,0,2.4l-2.9,0.6c-0.3-0.4-0.9-0.6-1.4-0.5c-0.8,0.2-1.3,0.9-1.1,1.7s0.9,1.3,1.7,1.1
		c0.5-0.1,0.9-0.5,1.1-1l2.9-0.6c0.2,0.9,0.6,1.7,1.1,2.5l-2.4,1.7c-0.5-0.2-1-0.2-1.5,0.1c-0.7,0.5-0.8,1.4-0.3,2
		c0.5,0.7,1.4,0.8,2,0.3c0.5-0.3,0.7-0.8,0.6-1.4l2.4-1.7c0.5,0.6,1,1.1,1.6,1.6l-1.7,2.4c-0.5-0.1-1,0.2-1.3,0.6
		c-0.4,0.7-0.3,1.6,0.4,2c0.7,0.4,1.6,0.3,2-0.4c0.3-0.5,0.3-1,0.1-1.5l1.7-2.4c0.5,0.3,1.1,0.6,1.7,0.8l-0.8,2.8
		c-0.5,0.1-0.9,0.5-1.1,1c-0.2,0.8,0.2,1.6,1,1.8c0.8,0.2,1.6-0.2,1.8-1c0.1-0.5,0-1.1-0.4-1.4l0.8-2.8c0.8,0.2,1.6,0.2,2.3,0.2
		l0.3,2.9c-0.4,0.3-0.7,0.8-0.6,1.3c0.1,0.8,0.8,1.4,1.6,1.3s1.4-0.8,1.3-1.6c-0.1-0.5-0.4-1-0.9-1.2l-0.3-2.9
		c0.6-0.1,1.3-0.3,1.9-0.5l1.2,2.7c-0.3,0.4-0.4,1-0.2,1.5c0.3,0.7,1.2,1,1.9,0.7c0.7-0.3,1-1.2,0.7-1.9c-0.2-0.5-0.7-0.8-1.2-0.8
		l-1.2-2.7c0.7-0.4,1.3-0.8,1.9-1.4l2.1,2.1c-0.1,0.5,0,1.1,0.4,1.4c0.6,0.6,1.5,0.5,2.1,0c0.6-0.6,0.5-1.5,0-2.1
		c-0.4-0.4-1-0.5-1.4-0.3l-2.1-2.1c0.4-0.5,0.8-1,1.1-1.6l2.7,1.3c0,0.5,0.3,1,0.8,1.2c0.7,0.3,1.6,0,1.9-0.7
		C43.5,215.5,43.2,214.6,42.4,214.3z"/>
	<path class="st0" d="M320.9,36.2c-0.7-0.3-1.6-0.2-2.2,0.2l-4-1.9c0.1-0.3,0.2-0.7,0.3-1c0.2-0.8,0.4-1.6,0.5-2.3l4.4,0.3
		c0.3,0.7,1,1.2,1.8,1.3c1.2,0.1,2.2-0.8,2.3-2c0.1-1.2-0.8-2.2-2-2.3c-0.8-0.1-1.6,0.4-2,1l-4.4-0.3c0-1.3-0.2-2.5-0.5-3.7l4.2-1.4
		c0.6,0.5,1.4,0.7,2.2,0.5c1.1-0.4,1.7-1.6,1.4-2.7c-0.4-1.1-1.6-1.7-2.7-1.4c-0.8,0.3-1.3,0.9-1.4,1.7l-4.2,1.4
		c-0.6-1.4-1.4-2.8-2.4-4l3-3.4c0.7,0.2,1.6-0.1,2.1-0.7c0.8-0.9,0.7-2.3-0.2-3c-0.9-0.8-2.3-0.7-3,0.2c-0.5,0.6-0.7,1.5-0.4,2.2
		l-2.9,3.2c-1.3-1.2-2.9-2.2-4.7-2.9l1.3-4.2c0.8-0.2,1.4-0.7,1.6-1.5c0.3-1.1-0.3-2.3-1.4-2.7c-1.1-0.3-2.3,0.3-2.7,1.4
		c-0.2,0.8,0,1.6,0.5,2.1l-1.3,4.2c-1.4-0.3-2.9-0.5-4.3-0.4l-0.6-4.4c0.6-0.4,1-1.2,0.9-2c-0.2-1.2-1.2-2-2.4-1.9
		c-1.2,0.2-2,1.2-1.9,2.4c0.1,0.8,0.7,1.5,1.4,1.7l0.6,4.4c-1.5,0.3-2.9,0.8-4.2,1.5l-2.4-3.7c0.4-0.7,0.4-1.5-0.1-2.2
		c-0.6-1-2-1.3-3-0.7c-1,0.6-1.3,2-0.7,3c0.4,0.7,1.2,1.1,2,1l2.4,3.7c-1.2,0.9-2.3,1.9-3.2,3.1l-3.7-2.4c0.1-0.8-0.3-1.5-1-2
		c-1-0.6-2.3-0.4-3,0.7c-0.6,1-0.4,2.3,0.7,3c0.7,0.4,1.5,0.4,2.2,0.1l3.7,2.4c-0.5,0.9-0.9,1.8-1.2,2.8c-0.1,0.3-0.2,0.5-0.2,0.8
		l-4.3-0.8c-0.2-0.7-0.9-1.3-1.7-1.4c-1.2-0.2-2.3,0.6-2.5,1.8s0.6,2.3,1.8,2.5c0.8,0.1,1.6-0.2,2.1-0.8l4.3,0.8
		c-0.1,1.2-0.1,2.4,0.1,3.5l-4.3,0.9c-0.5-0.6-1.3-0.9-2.1-0.7c-1.2,0.2-1.9,1.4-1.7,2.5c0.2,1.2,1.4,1.9,2.5,1.7
		c0.8-0.2,1.4-0.8,1.6-1.5l4.3-0.9c0.4,1.3,0.9,2.6,1.6,3.8l-3.6,2.5c-0.7-0.3-1.5-0.3-2.2,0.2c-1,0.7-1.2,2-0.5,3s2,1.2,3,0.5
		c0.7-0.5,1-1.3,0.9-2l3.6-2.5c0.7,0.9,1.5,1.6,2.4,2.3l-2.5,3.6c-0.8-0.1-1.5,0.3-2,0.9c-0.7,1-0.4,2.3,0.6,3c1,0.7,2.3,0.4,3-0.6
		c0.5-0.7,0.5-1.5,0.1-2.2l2.5-3.6c0.8,0.5,1.6,0.9,2.5,1.2l-1.2,4.2c-0.7,0.2-1.4,0.7-1.6,1.5c-0.3,1.1,0.3,2.3,1.5,2.7
		c1.1,0.3,2.3-0.3,2.7-1.5c0.2-0.8,0-1.6-0.6-2.1l1.2-4.2c1.2,0.2,2.3,0.3,3.5,0.3l0.4,4.4c-0.6,0.4-1,1.2-0.9,2
		c0.1,1.2,1.2,2.1,2.4,1.9c1.2-0.1,2.1-1.2,1.9-2.4c-0.1-0.8-0.6-1.5-1.3-1.8l-0.4-4.4c1-0.2,1.9-0.4,2.8-0.8l1.8,4
		c-0.5,0.6-0.6,1.5-0.2,2.2c0.5,1.1,1.8,1.6,2.9,1.1c1.1-0.5,1.6-1.8,1.1-2.9c-0.3-0.7-1.1-1.2-1.8-1.3l-1.8-4c1-0.6,2-1.2,2.9-2
		l3.2,3.1c-0.2,0.7,0,1.6,0.6,2.1c0.9,0.8,2.2,0.8,3.1,0c0.8-0.9,0.8-2.2,0-3.1c-0.6-0.6-1.4-0.7-2.2-0.5l-3.2-3.1
		c0.6-0.7,1.2-1.5,1.7-2.4l4,1.9c0,0.8,0.5,1.5,1.2,1.8c1.1,0.5,2.4,0,2.9-1C322.5,38,322,36.7,320.9,36.2z"/>
	<polyline class="st2" points="44.4,197.8 91.1,151.9 63.4,120.9 	"/>
	<polyline class="st2" points="281.3,48.7 221.5,97.1 253.7,127.7 	"/>
</g>
</svg>
