<?xml version="1.0" encoding="utf-8"?>
<!-- Generator: Adobe Illustrator 22.1.0, SVG Export Plug-In . SVG Version: 6.00 Build 0)  -->
<svg version="1.1" id="圖層_1" xmlns="http://www.w3.org/2000/svg" xmlns:xlink="http://www.w3.org/1999/xlink" x="0px" y="0px"
	 viewBox="0 0 230.7 454.4" style="enable-background:new 0 0 230.7 454.4;" xml:space="preserve">
<style type="text/css">
	.st0{fill:#FFFFFF;}
</style>
<g>
	<path class="st0" d="M87.5,43.3c40.7,6.4,26.1,33,10,27.7c-1.6,1.4-3.9,2.5-7.5,3c-0.7,27-3,37.5-10.9,42.7
		c-5.5,3.4-11.8,5.2-21.4,5.2c0.2-6.4-0.2-12-2.7-15.2c-1.4-1.8-3.4-3.4-5.9-4.5c-8.6,16.4-22,29.3-41.1,38.9l-1.4-2.7
		c18.6-18.2,25-42,26.4-68H18l-2-6.4h48.6l12-11.4l14.8,11.8c0-7.3-2.7-15.2-5.9-20L87.5,43.3z M214.6,72.2c-2.7,2-7.5,1.8-13.4-0.7
		c-4.3,0.7-9.3,1.1-15,1.8c8.4,17.7,24.8,27.7,41.1,34.1v2.5c-10.2,3-17.7,12-21.4,26.1c-10.5-10.9-16.8-23.4-20.7-39.5
		c-6.1,6.1-16.6,15.9-28.2,26.1l31.1,2.5c-0.5,2.7-1.8,5-7.3,5.7v82.1c0,2.3-14.8,7.5-27.5,7.5h-5.9v-39.8H77.3
		c-7.7,17-25.2,32.3-62.7,40.7l-1.1-1.8C44.8,202,49.8,177,49.8,154v-32.3l40.2,3.6c-0.5,3-2.3,5.2-7.3,5.9v13h64.8v-15.7l-10.7-23
		c6.1-3.4,7-5.2,7-9.3v-32l19.8,1.8c11.1-5.2,22.3-11.8,28.9-16.6L214.6,72.2z M13.9,35.4h92.5l-1.6-0.9c-1.4-10.7-8-21.8-14.8-28.2
		l1.4-1.1c48.2-5,49.3,21.4,35.2,30.2h38.6l18.6-22c0,0,20.9,14.5,33.9,24.8c-0.7,2.5-3.4,3.6-6.8,3.6H15.7L13.9,35.4z M59.6,70.4
		c-1.8,9.8-4.5,18.9-8.4,27.3c2.7,0.2,5.5,0.2,7.3,0.2c2.5,0,3.9-0.5,4.8-1.4c1.8-1.8,3-9.3,3.4-26.1H59.6z M147.5,174.3v-23.6H82.7
		v3.9c-0.2,6.6-0.9,13.2-3.2,19.8H147.5z M156.4,52.4c-0.5,2.3-3.2,4.8-8.2,4.5c-4.8,5-13.6,12.7-22.5,19.5l9.5,0.9
		c-0.5,2.5-1.8,4.3-6.6,5v48.2c0,1.8-12.3,5.9-22.3,5.9h-5V74.5l16.6,1.4c3-11.1,6.1-25.2,7.3-33L156.4,52.4z M168,97.4
		c5.2-1.6,10.7-3.4,16.1-5c-1.1-5.9-2-12-2.7-18.9c-4.3,0.5-8.9,0.7-13.4,0.9V97.4z"/>
	<path class="st0" d="M213,300.2c-2,2.3-5,3.9-10.5,4.8c-2.7,77.1-7.7,116.6-22.3,129.6c-9.3,8.6-19.8,12.3-40,12.3
		c0.2-10.5-1.6-18.6-6.8-23.6c-5.2-5.2-16.1-10-30-12.7v-2.3c14.5,0.9,34.8,2,41.8,2c4.1,0,6.6-0.7,8.9-3
		c8.4-6.8,12.3-46.8,14.5-108.4h-48.9c-4.3,61.8-22,114.6-109.3,149.8l-2-3c59.8-42.5,73.2-90.9,76.1-146.8h-65l-2-6.4H85
		c0.7-18.9,0.5-38.4,0.5-58.9l44.5,4.1c-0.5,3.6-2.7,5.7-8.4,6.4c-0.5,16.6-0.5,32.7-1.4,48.4h45.9l18-17.7L213,300.2z"/>
</g>
</svg>
