<?xml version="1.0" encoding="utf-8"?>
<!-- Generator: Adobe Illustrator 22.1.0, SVG Export Plug-In . SVG Version: 6.00 Build 0)  -->
<svg version="1.1" id="圖層_1" xmlns="http://www.w3.org/2000/svg" xmlns:xlink="http://www.w3.org/1999/xlink" x="0px" y="0px"
	 viewBox="0 0 463.8 331.9" style="enable-background:new 0 0 463.8 331.9;" xml:space="preserve">
<style type="text/css">
	.st0{fill:#FFFFFF;}
	.st1{fill:none;stroke:#FFFFFF;stroke-width:7.1556;stroke-miterlimit:10;}
	.st2{fill:none;stroke:#FFFFFF;stroke-width:2;stroke-miterlimit:10;}
</style>
<g>
	<g>
		<g>
			<path class="st0" d="M199.5,263.8c-0.1,0-0.2,0-0.2,0c-0.3-0.1-0.5-0.3-0.6-0.6c-0.2-0.8-0.8-1.1-1.8-1.7
				c-0.3-0.1-0.5-0.3-0.8-0.4c-0.3,0.4-0.5,0.7-0.7,1.1c-0.1,0.3-0.4,0.5-0.7,0.5c0,0,0,0,0,0c-0.8,0-1.4-0.4-1.7-1.2
				c-0.2-0.5-0.2-1.1-0.3-1.7c0-0.4-0.1-1-0.2-1.2c-1-1.8-1-3.9-1-6c0-1.7,0-3.4-0.5-4.8c-2.1-5.3-5.5-7.9-10-10.2
				c-0.2-0.1-0.3-0.3-0.4-0.5c-0.2-0.6-0.7-0.8-1.6-1.2c-0.8-0.3-1.6-0.7-2.3-1.5c-0.5-0.5-0.9-1.2-1.2-1.8
				c-0.5-0.7-0.9-1.4-1.4-1.9c-0.1-0.1-0.2-0.2-0.3-0.4c-0.1-0.3,0-0.7,0.3-0.9c-0.6-0.5-1.1-1.1-1.3-2c-0.3-0.8-0.3-1.7,0.1-2.5
				c-0.6-0.7-1.2-1.4-1.7-2.1c-1.1-1.8-1.2-3.4-1.4-5c-0.2-1.7-0.3-3.3-1.6-5c-0.3-0.3-0.2-0.8,0.1-1.1c0.1-0.1,0.2-0.2,0.3-0.3
				c-0.7-0.5-2.1-0.9-3.8-1.2c-0.4-0.1-0.7-0.4-0.7-0.8c-0.1-1.1-0.3-3.1,0.8-4.2c-0.7-2.4,0.1-4.7,0.9-7c0.6-1.8,1.2-3.5,1-5.2
				c0-0.2,0-0.4,0.2-0.6c0.1-0.2,0.3-0.3,0.6-0.3c0,0,0,0,0.1,0c0-0.9,0.1-1.8,0.2-2.7c0.1-1.3,0.3-2.5,0-3.8
				c-0.6-2.5-0.3-5.1,0.7-7c0.4-0.7,0.6-1.4,0.8-2.1c0.4-1.3,0.9-2.6,2-3.8c1-1.1,1.7-1.2,2.5-1.1c0.1,0,0.2,0,0.3,0
				c-0.1-0.2-0.2-0.4-0.3-0.5c-0.3-0.4-0.6-0.9-0.5-1.6c0.1-0.6,0.5-1.2,1.4-2.1c0.9-0.8,1.4-1.8,2-2.9c0.5-0.8,1-1.7,1.7-2.6
				c0.9-1.1,1.2-1.8,1.5-2.6c0.2-0.4,0.4-0.8,0.7-1.4c0.4-0.7,0.9-1.3,1.4-1.8c0.5-0.6,1.1-1.2,1.4-2c0.1-0.3,0.3-0.8,0.4-1.4
				c0.8-2.7,2-6.6,4.4-7.6c0.5-1.5,1.6-3.7,2.8-5.8c1.5-2.6,2.8-4.2,3.9-4.8c0-0.2,0-0.3,0-0.5c-0.1-0.4,0.2-0.9,0.6-1
				c0.9-0.2,1.8-0.6,2.6-1c0.3-2,1.2-2.6,2.2-3.3c0.4-0.3,0.8-0.5,1.2-0.9c0.4-0.6,0.4-1,0.4-1.5c0-0.7,0-1.5,0.9-2.4
				c-0.1-1.3,0.5-2,1-2.8c0.1-0.2,0.3-0.4,0.4-0.6c3.2-4.8,4.7-6.4,9.9-8.7c0.6-0.3,5.9-2.6,9.2-3c0.1-0.4,0.2-0.9,0.4-1.5
				c0-0.1,0-0.1,0.1-0.2c0-0.2,0-0.3,0.1-0.5l0,0c0,0,0,0,0,0c1-1.8,2.1-3.1,3.5-3.8c3.5-1.8,4.9,0.1,6,1.6c0.7,1,1.3,1.9,2.5,2.1
				c0.3,0.1,0.5,0.3,0.6,0.5c0.6,1.6,4.5,2.6,6.4,2.7c2,0.1,2.9,0.3,3.5,0.9c0.5,0.6,0.4,1.3,0.4,1.9c0,0.6-0.1,1.3,0.1,2.2
				c0.2,0.1,0.5,0.1,0.9,0.1c0.7,0.1,1.6,0.1,2.2,0.8c0.2,0.2,0.2,0.4,0.2,0.6c-0.1,1-1.4,2.1-3.5,3.7c-0.7,0.5-1.4,1-1.6,1.3
				c-1.5,1.7-1.9,2.4-2.4,4.5c-0.5,1.8-0.5,6.5,0.8,8.6c0.3,0.5,0.7,0.8,1.1,0.9c0.3,0.1,0.6,0.4,0.6,0.7c0,0.4-0.2,0.7-0.5,0.8
				c-0.4,0.2-0.7,2.1-0.9,2.9c-0.3,1.5-0.5,2.8-1.2,3.4c-1.2,1.1-1.6,3-2,4.7c-0.2,0.6-0.3,1.3-0.5,1.9c-0.6,1.9-1.4,3.7-3.4,4.5
				c-0.3,1.1-0.8,2.2-1.4,3.2c-0.7,1.2-1.3,2.3-1.2,3.2c0.6,4.1-0.7,8.4-1.8,12.5c-0.6,2-1.2,4.1-1.5,6.1l-0.1,0.4
				c-1.2,6.8-2.5,13.7-5.1,19.6c-0.2,0.3-0.3,1.5-0.5,2.5c-0.5,2.9-0.8,4.4-1.6,4.9c0,0-0.1,0.1-0.1,0.1c-0.8,1.6-3.2,6-3.8,6.7
				l-0.1,0.1c-1.5,1.7-3.5,4.1-3.5,5.8c0,2.6-4,5-4.2,5.1c-2.3,1.4-4.7,4.3-6.5,7.9c-1.8,3.5-2.8,7.2-2.9,10.2c0,1.9,0,3.9,0.1,5.8
				c0.1,1.6,0.1,3.4,0.1,5c0,1.3-0.5,2.3-0.9,3.1c-0.5,1-0.9,1.7-0.2,3.1c0.1,0.3,0.1,0.6-0.1,0.8c0,0.1-0.1,0.1-0.2,0.2
				c0.1,0.1,0.1,0.3,0.1,0.4c0.1,0.7-0.4,1.2-1.2,2C199.9,263.7,199.7,263.8,199.5,263.8z"/>
		</g>
	</g>
	<g>
		<path class="st1" d="M207,80.3c-29.1,3.9-60.2,7.2-92.7,9.8v12.3c0,92,6,150.4,89.5,186.2l3.3,1.4l3.3-1.4
			c83.5-35.8,89.5-94.2,89.5-186.2V90.1C267.2,87.5,236.1,84.2,207,80.3z"/>
	</g>
</g>
<path class="st0" d="M47.8,308.6c-0.7-0.3-1.5-0.2-2.1,0.2l-3.9-1.8c0.1-0.3,0.2-0.6,0.3-1c0.2-0.8,0.4-1.5,0.5-2.3l4.3,0.3
	c0.3,0.7,1,1.2,1.8,1.2c1.2,0.1,2.2-0.8,2.2-2s-0.8-2.2-2-2.2c-0.8-0.1-1.5,0.3-1.9,1l-4.3-0.3c0-1.2-0.2-2.5-0.5-3.6l4.1-1.3
	c0.5,0.5,1.3,0.7,2.1,0.5c1.1-0.4,1.7-1.6,1.3-2.7c-0.4-1.1-1.6-1.7-2.7-1.3c-0.8,0.3-1.3,0.9-1.4,1.6l-4.1,1.3
	c-0.6-1.4-1.4-2.7-2.3-3.8l2.9-3.3c0.7,0.2,1.5-0.1,2-0.7c0.8-0.9,0.7-2.2-0.2-3c-0.9-0.8-2.2-0.7-3,0.2c-0.5,0.6-0.7,1.4-0.4,2.1
	l-2.8,3.2c-1.3-1.2-2.8-2.1-4.5-2.8l1.3-4.1c0.7-0.1,1.4-0.7,1.6-1.4c0.3-1.1-0.3-2.3-1.4-2.6c-1.1-0.3-2.3,0.3-2.6,1.4
	c-0.2,0.8,0,1.6,0.5,2.1l-1.3,4.1c-1.4-0.3-2.8-0.4-4.2-0.4l-0.6-4.2c0.6-0.4,1-1.2,0.9-2c-0.1-1.2-1.2-2-2.4-1.8
	c-1.2,0.1-2,1.2-1.8,2.4c0.1,0.8,0.6,1.4,1.3,1.7l0.6,4.2c-1.4,0.3-2.8,0.8-4.1,1.5l-2.3-3.6c0.4-0.7,0.4-1.5-0.1-2.2
	c-0.6-1-1.9-1.3-2.9-0.7c-1,0.6-1.3,1.9-0.7,2.9c0.4,0.7,1.2,1,1.9,1l2.3,3.6c-1.2,0.9-2.2,1.9-3.1,3.1l-3.6-2.3
	c0.1-0.7-0.3-1.5-1-1.9c-1-0.6-2.3-0.3-2.9,0.6c-0.6,1-0.3,2.3,0.6,2.9c0.7,0.4,1.5,0.4,2.2,0.1l3.6,2.3c-0.5,0.9-0.9,1.8-1.2,2.7
	c-0.1,0.3-0.2,0.5-0.2,0.8l-4.2-0.7c-0.2-0.7-0.8-1.3-1.6-1.4c-1.1-0.2-2.2,0.6-2.4,1.7c-0.2,1.1,0.6,2.2,1.7,2.4
	c0.8,0.1,1.5-0.2,2-0.8l4.2,0.7c-0.1,1.2-0.1,2.3,0.1,3.5l-4.2,0.9c-0.5-0.6-1.3-0.9-2-0.7c-1.1,0.2-1.9,1.3-1.6,2.5
	c0.2,1.1,1.3,1.9,2.5,1.6c0.8-0.2,1.4-0.7,1.6-1.5l4.2-0.9c0.4,1.3,0.9,2.5,1.6,3.7l-3.5,2.5c-0.7-0.3-1.5-0.3-2.1,0.2
	c-0.9,0.7-1.2,2-0.5,2.9c0.7,0.9,2,1.2,2.9,0.5c0.7-0.5,1-1.2,0.9-2l3.5-2.5c0.7,0.8,1.4,1.6,2.3,2.3l-2.4,3.5
	c-0.7-0.1-1.5,0.2-1.9,0.9c-0.7,1-0.4,2.3,0.6,2.9c1,0.7,2.3,0.4,2.9-0.6c0.4-0.7,0.5-1.5,0.1-2.1l2.4-3.5c0.8,0.4,1.6,0.8,2.5,1.1
	l-1.2,4.1c-0.7,0.2-1.3,0.7-1.6,1.5c-0.3,1.1,0.3,2.3,1.5,2.6c1.1,0.3,2.3-0.3,2.6-1.5c0.2-0.8,0-1.6-0.6-2.1l1.2-4.1
	c1.1,0.2,2.3,0.3,3.4,0.3l0.4,4.3c-0.6,0.4-1,1.2-0.9,1.9c0.1,1.2,1.1,2,2.3,1.9s2-1.1,1.9-2.3c-0.1-0.8-0.6-1.4-1.3-1.7l-0.4-4.3
	c0.9-0.2,1.8-0.4,2.7-0.7l1.8,3.9c-0.4,0.6-0.6,1.4-0.2,2.1c0.5,1.1,1.7,1.5,2.8,1c1.1-0.5,1.5-1.7,1-2.8c-0.3-0.7-1-1.2-1.8-1.2
	l-1.8-3.9c1-0.5,1.9-1.2,2.8-2l3.1,3c-0.2,0.7,0,1.5,0.6,2.1c0.8,0.8,2.2,0.8,3,0c0.8-0.8,0.8-2.2,0-3c-0.6-0.6-1.4-0.7-2.1-0.5
	l-3.1-3c0.6-0.7,1.1-1.5,1.6-2.3l3.9,1.8c0,0.7,0.5,1.4,1.2,1.8c1.1,0.5,2.3,0,2.8-1C49.3,310.3,48.9,309.1,47.8,308.6z"/>
<path class="st0" d="M451,50.8c-1.1-0.5-2.3-0.3-3.2,0.3l-5.8-2.7c0.2-0.5,0.4-1,0.5-1.5c0.3-1.1,0.6-2.2,0.7-3.4l6.3,0.4
	c0.5,1,1.4,1.7,2.6,1.8c1.7,0.1,3.2-1.2,3.3-2.9c0.1-1.7-1.2-3.2-2.9-3.3c-1.2-0.1-2.3,0.5-2.9,1.4l-6.3-0.4c0-1.8-0.2-3.7-0.7-5.4
	l6-2c0.8,0.8,2,1.1,3.1,0.7c1.6-0.5,2.5-2.3,2-3.9s-2.3-2.5-3.9-2c-1.1,0.4-1.9,1.3-2.1,2.4l-6,2c-0.8-2.1-2-4-3.5-5.7l4.3-4.9
	c1.1,0.3,2.3-0.1,3-1c1.1-1.3,1-3.3-0.3-4.4c-1.3-1.1-3.3-1-4.4,0.3c-0.8,0.9-1,2.1-0.6,3.1l-4.2,4.7c-1.9-1.7-4.2-3.2-6.8-4.1
	l1.9-6.1c1.1-0.2,2-1,2.4-2.1c0.5-1.6-0.4-3.4-2.1-3.9c-1.6-0.5-3.4,0.4-3.9,2.1c-0.3,1.1,0,2.3,0.8,3.1l-1.9,6.1
	c-2.1-0.5-4.2-0.7-6.2-0.5l-0.8-6.3c0.9-0.6,1.4-1.8,1.3-2.9c-0.2-1.7-1.8-2.9-3.5-2.7c-1.7,0.2-2.9,1.8-2.7,3.5
	c0.2,1.2,0.9,2.1,2,2.5l0.8,6.3c-2.1,0.4-4.2,1.2-6,2.2l-3.4-5.4c0.5-1,0.6-2.2-0.1-3.2c-0.9-1.5-2.9-1.9-4.3-1
	c-1.5,0.9-1.9,2.9-1,4.3c0.6,1,1.7,1.5,2.9,1.4l3.4,5.4c-1.7,1.3-3.3,2.8-4.6,4.6l-5.4-3.4c0.1-1.1-0.4-2.2-1.4-2.9
	c-1.5-0.9-3.4-0.5-4.3,0.9c-0.9,1.5-0.5,3.4,0.9,4.3c1,0.6,2.2,0.6,3.2,0.1l5.4,3.4c-0.7,1.3-1.3,2.6-1.7,4.1
	c-0.1,0.4-0.2,0.8-0.3,1.2l-6.3-1.1c-0.4-1.1-1.3-1.9-2.4-2.1c-1.7-0.3-3.3,0.8-3.6,2.5c-0.3,1.7,0.8,3.3,2.5,3.6
	c1.2,0.2,2.3-0.3,3-1.1l6.3,1.1c-0.2,1.7-0.1,3.5,0.1,5.1l-6.2,1.3c-0.7-0.8-1.9-1.3-3-1c-1.7,0.3-2.8,2-2.4,3.7
	c0.3,1.7,2,2.8,3.7,2.4c1.2-0.2,2-1.1,2.4-2.2l6.2-1.3c0.5,1.9,1.3,3.8,2.4,5.5l-5.2,3.7c-1-0.5-2.2-0.4-3.2,0.2
	c-1.4,1-1.7,2.9-0.7,4.4c1,1.4,2.9,1.7,4.4,0.7c1-0.7,1.4-1.8,1.3-2.9l5.2-3.7c1,1.2,2.1,2.4,3.4,3.4l-3.6,5.3
	c-1.1-0.1-2.2,0.4-2.9,1.4c-1,1.4-0.6,3.4,0.8,4.3c1.4,1,3.4,0.6,4.3-0.8c0.7-1,0.7-2.2,0.2-3.2l3.6-5.3c1.1,0.7,2.4,1.2,3.7,1.7
	l-1.7,6.1c-1.1,0.2-2,1.1-2.3,2.2c-0.5,1.7,0.5,3.4,2.2,3.8c1.7,0.5,3.4-0.5,3.8-2.2c0.3-1.1,0-2.3-0.8-3.1l1.7-6.1
	c1.7,0.3,3.4,0.5,5,0.4l0.6,6.3c-0.9,0.6-1.5,1.7-1.4,2.9c0.2,1.7,1.7,3,3.4,2.8c1.7-0.2,3-1.7,2.8-3.4c-0.1-1.2-0.9-2.1-1.9-2.6
	l-0.6-6.3c1.4-0.2,2.7-0.6,4-1.1l2.6,5.8c-0.7,0.9-0.8,2.1-0.3,3.2c0.7,1.6,2.6,2.3,4.1,1.5c1.6-0.7,2.3-2.6,1.5-4.1
	c-0.5-1.1-1.5-1.7-2.6-1.8l-2.6-5.8c1.5-0.8,2.9-1.8,4.2-2.9l4.6,4.4c-0.3,1.1,0,2.3,0.8,3.1c1.2,1.2,3.2,1.2,4.4-0.1
	c1.2-1.2,1.2-3.2-0.1-4.4c-0.9-0.8-2.1-1.1-3.1-0.7l-4.6-4.4c0.9-1.1,1.7-2.2,2.4-3.5l5.8,2.7c0.1,1.1,0.7,2.1,1.8,2.6
	c1.6,0.7,3.4,0.1,4.2-1.5C453.3,53.4,452.6,51.5,451,50.8z"/>
<polyline class="st2" points="50.7,284.8 118.3,218.3 78.1,173.4 "/>
<polyline class="st2" points="393.6,68.9 307.1,138.9 353.6,183.2 "/>
</svg>
